<svg width="334" height="32" viewBox="0 0 334 32" fill="none" xmlns="http://www.w3.org/2000/svg">
<path d="M18.3862 21.4255H24.5454C24.4218 23.4442 23.8657 25.2364 22.8769 26.8019C21.9019 28.3675 20.5354 29.5897 18.7776 30.4686C17.0335 31.3475 14.9324 31.787 12.4742 31.787C10.5516 31.787 8.82812 31.4574 7.30377 30.7982C5.77942 30.1253 4.47479 29.164 3.38989 27.9143C2.31873 26.6646 1.50162 25.154 0.938568 23.3824C0.375519 21.6109 0.0939941 19.6265 0.0939941 17.4292V15.3487C0.0939941 13.1514 0.382385 11.167 0.959167 9.39548C1.54968 7.6102 2.38739 6.09271 3.47229 4.84302C4.57092 3.59332 5.88242 2.63202 7.40677 1.95911C8.93112 1.28619 10.634 0.949738 12.5154 0.949738C15.0148 0.949738 17.1228 1.40292 18.8394 2.3093C20.5698 3.21567 21.9087 4.46536 22.8563 6.05838C23.8176 7.6514 24.3944 9.46414 24.5866 11.4966H18.4068C18.3382 10.2881 18.0978 9.26501 17.6859 8.42731C17.2739 7.57587 16.649 6.93729 15.8113 6.51157C14.9873 6.07211 13.8887 5.85239 12.5154 5.85239C11.4854 5.85239 10.5859 6.04465 9.81689 6.42917C9.04785 6.81369 8.4024 7.39734 7.88055 8.18011C7.3587 8.96289 6.96732 9.95166 6.70639 11.1464C6.4592 12.3275 6.3356 13.7145 6.3356 15.3075V17.4292C6.3356 18.981 6.45233 20.3475 6.68579 21.5285C6.91925 22.6958 7.27631 23.6846 7.75696 24.4948C8.25134 25.2913 8.88306 25.8956 9.6521 26.3076C10.4349 26.7058 11.3756 26.9049 12.4742 26.9049C13.7651 26.9049 14.8294 26.6989 15.6671 26.287C16.5048 25.875 17.1434 25.2639 17.5829 24.4536C18.036 23.6434 18.3038 22.634 18.3862 21.4255ZM53.2404 15.6783V17.0996C53.2404 19.3793 52.9314 21.4255 52.3134 23.2383C51.6954 25.051 50.8234 26.5959 49.6973 27.8731C48.5712 29.1365 47.2253 30.1047 45.6598 30.7776C44.108 31.4505 42.3845 31.787 40.4893 31.787C38.6079 31.787 36.8845 31.4505 35.3189 30.7776C33.7671 30.1047 32.4213 29.1365 31.2814 27.8731C30.1416 26.5959 29.2558 25.051 28.6241 23.2383C28.0061 21.4255 27.6971 19.3793 27.6971 17.0996V15.6783C27.6971 13.3849 28.0061 11.3387 28.6241 9.53967C29.2421 7.72693 30.1141 6.18198 31.2402 4.90482C32.3801 3.62766 33.7259 2.65262 35.2777 1.97971C36.8433 1.30679 38.5667 0.970337 40.4482 0.970337C42.3433 0.970337 44.0668 1.30679 45.6186 1.97971C47.1841 2.65262 48.53 3.62766 49.6561 4.90482C50.7959 6.18198 51.6748 7.72693 52.2928 9.53967C52.9245 11.3387 53.2404 13.3849 53.2404 15.6783ZM46.9987 17.0996V15.6371C46.9987 14.0441 46.8546 12.6433 46.5662 11.4348C46.2778 10.2263 45.8521 9.21008 45.289 8.38611C44.726 7.56213 44.0393 6.94415 43.2291 6.53217C42.4188 6.10645 41.4919 5.89359 40.4482 5.89359C39.4044 5.89359 38.4775 6.10645 37.6672 6.53217C36.8707 6.94415 36.1909 7.56213 35.6279 8.38611C35.0786 9.21008 34.6597 10.2263 34.3713 11.4348C34.0829 12.6433 33.9388 14.0441 33.9388 15.6371V17.0996C33.9388 18.6789 34.0829 20.0797 34.3713 21.3019C34.6597 22.5104 35.0854 23.5335 35.6485 24.3712C36.2115 25.1952 36.8982 25.82 37.7084 26.2458C38.5187 26.6715 39.4456 26.8843 40.4893 26.8843C41.5331 26.8843 42.46 26.6715 43.2703 26.2458C44.0805 25.82 44.7603 25.1952 45.3096 24.3712C45.8589 23.5335 46.2778 22.5104 46.5662 21.3019C46.8546 20.0797 46.9987 18.6789 46.9987 17.0996ZM69.3697 20.6839H61.7273V15.8637H69.3697C70.5507 15.8637 71.512 15.6714 72.2536 15.2869C72.9951 14.8886 73.5376 14.3393 73.8809 13.6389C74.2242 12.9386 74.3959 12.1489 74.3959 11.27C74.3959 10.3774 74.2242 9.54654 73.8809 8.7775C73.5376 8.00845 72.9951 7.39047 72.2536 6.92355C71.512 6.45663 70.5507 6.22318 69.3697 6.22318H63.8696V31.375H57.6898V1.38232H69.3697C71.718 1.38232 73.7299 1.80804 75.4053 2.65948C77.0944 3.49719 78.3853 4.65762 79.278 6.14078C80.1706 7.62393 80.6169 9.31995 80.6169 11.2288C80.6169 13.1652 80.1706 14.8406 79.278 16.2551C78.3853 17.6696 77.0944 18.7613 75.4053 19.5304C73.7299 20.2994 71.718 20.6839 69.3697 20.6839ZM93.6563 6.51157L85.499 31.375H78.9278L90.072 1.38232H94.2537L93.6563 6.51157ZM100.434 31.375L92.2556 6.51157L91.5964 1.38232H95.8192L107.025 31.375H100.434ZM100.063 20.2101V25.051H84.2218V20.2101H100.063ZM129.52 31.375H122.99L123.031 26.5547H129.52C131.14 26.5547 132.507 26.1908 133.619 25.463C134.731 24.7214 135.569 23.6434 136.132 22.2289C136.709 20.8144 136.997 19.1046 136.997 17.0996V15.6371C136.997 14.099 136.833 12.7463 136.503 11.579C136.187 10.4117 135.713 9.42981 135.082 8.6333C134.45 7.83679 133.674 7.23941 132.754 6.84116C131.834 6.42917 130.776 6.22318 129.582 6.22318H122.866V1.38232H129.582C131.587 1.38232 133.42 1.72565 135.082 2.41229C136.757 3.08521 138.206 4.05338 139.428 5.3168C140.65 6.58023 141.591 8.09085 142.25 9.84866C142.923 11.5927 143.26 13.5359 143.26 15.6783V17.0996C143.26 19.2282 142.923 21.1714 142.25 22.9293C141.591 24.6871 140.65 26.1977 139.428 27.4611C138.22 28.7108 136.771 29.679 135.082 30.3656C133.406 31.0385 131.552 31.375 129.52 31.375ZM126.492 1.38232V31.375H120.312V1.38232H126.492ZM172.387 15.6783V17.0996C172.387 19.3793 172.078 21.4255 171.46 23.2383C170.842 25.051 169.97 26.5959 168.844 27.8731C167.718 29.1365 166.372 30.1047 164.807 30.7776C163.255 31.4505 161.531 31.787 159.636 31.787C157.755 31.787 156.031 31.4505 154.466 30.7776C152.914 30.1047 151.568 29.1365 150.428 27.8731C149.288 26.5959 148.403 25.051 147.771 23.2383C147.153 21.4255 146.844 19.3793 146.844 17.0996V15.6783C146.844 13.3849 147.153 11.3387 147.771 9.53967C148.389 7.72693 149.261 6.18198 150.387 4.90482C151.527 3.62766 152.873 2.65262 154.424 1.97971C155.99 1.30679 157.713 0.970337 159.595 0.970337C161.49 0.970337 163.214 1.30679 164.765 1.97971C166.331 2.65262 167.677 3.62766 168.803 4.90482C169.943 6.18198 170.822 7.72693 171.44 9.53967C172.071 11.3387 172.387 13.3849 172.387 15.6783ZM166.145 17.0996V15.6371C166.145 14.0441 166.001 12.6433 165.713 11.4348C165.424 10.2263 164.999 9.21008 164.436 8.38611C163.873 7.56213 163.186 6.94415 162.376 6.53217C161.566 6.10645 160.639 5.89359 159.595 5.89359C158.551 5.89359 157.624 6.10645 156.814 6.53217C156.017 6.94415 155.338 7.56213 154.775 8.38611C154.225 9.21008 153.806 10.2263 153.518 11.4348C153.23 12.6433 153.085 14.0441 153.085 15.6371V17.0996C153.085 18.6789 153.23 20.0797 153.518 21.3019C153.806 22.5104 154.232 23.5335 154.795 24.3712C155.358 25.1952 156.045 25.82 156.855 26.2458C157.665 26.6715 158.592 26.8843 159.636 26.8843C160.68 26.8843 161.607 26.6715 162.417 26.2458C163.227 25.82 163.907 25.1952 164.456 24.3712C165.006 23.5335 165.424 22.5104 165.713 21.3019C166.001 20.0797 166.145 18.6789 166.145 17.0996ZM190.164 1.38232H195.397L203.101 23.403L210.805 1.38232H216.037L205.202 31.375H201L190.164 1.38232ZM187.342 1.38232H192.554L193.501 22.8469V31.375H187.342V1.38232ZM213.648 1.38232H218.88V31.375H212.7V22.8469L213.648 1.38232ZM240.859 1.38232H247.019V21.1989C247.019 23.506 246.524 25.4492 245.535 27.0285C244.56 28.6078 243.208 29.7957 241.477 30.5922C239.761 31.3887 237.783 31.787 235.545 31.787C233.306 31.787 231.315 31.3887 229.571 30.5922C227.841 29.7957 226.481 28.6078 225.492 27.0285C224.517 25.4492 224.03 23.506 224.03 21.1989V1.38232H230.21V21.1989C230.21 22.5447 230.422 23.6434 230.848 24.4948C231.274 25.3463 231.885 25.9711 232.681 26.3694C233.492 26.7676 234.446 26.9667 235.545 26.9667C236.671 26.9667 237.625 26.7676 238.408 26.3694C239.205 25.9711 239.809 25.3463 240.221 24.4948C240.647 23.6434 240.859 22.5447 240.859 21.1989V1.38232ZM276.517 1.38232V31.375H270.337L258.286 11.27V31.375H252.107V1.38232H258.286L270.358 21.5079V1.38232H276.517ZM291.101 31.375H284.571L284.612 26.5547H291.101C292.722 26.5547 294.088 26.1908 295.201 25.463C296.313 24.7214 297.151 23.6434 297.714 22.2289C298.29 20.8144 298.579 19.1046 298.579 17.0996V15.6371C298.579 14.099 298.414 12.7463 298.084 11.579C297.769 10.4117 297.295 9.42981 296.663 8.6333C296.031 7.83679 295.255 7.23941 294.335 6.84116C293.415 6.42917 292.358 6.22318 291.163 6.22318H284.448V1.38232H291.163C293.168 1.38232 295.001 1.72565 296.663 2.41229C298.338 3.08521 299.787 4.05338 301.01 5.3168C302.232 6.58023 303.172 8.09085 303.832 9.84866C304.505 11.5927 304.841 13.5359 304.841 15.6783V17.0996C304.841 19.2282 304.505 21.1714 303.832 22.9293C303.172 24.6871 302.232 26.1977 301.01 27.4611C299.801 28.7108 298.352 29.679 296.663 30.3656C294.988 31.0385 293.134 31.375 291.101 31.375ZM288.073 1.38232V31.375H281.893V1.38232H288.073ZM333.969 15.6783V17.0996C333.969 19.3793 333.66 21.4255 333.042 23.2383C332.424 25.051 331.552 26.5959 330.425 27.8731C329.299 29.1365 327.953 30.1047 326.388 30.7776C324.836 31.4505 323.113 31.787 321.217 31.787C319.336 31.787 317.613 31.4505 316.047 30.7776C314.495 30.1047 313.149 29.1365 312.01 27.8731C310.87 26.5959 309.984 25.051 309.352 23.2383C308.734 21.4255 308.425 19.3793 308.425 17.0996V15.6783C308.425 13.3849 308.734 11.3387 309.352 9.53967C309.97 7.72693 310.842 6.18198 311.968 4.90482C313.108 3.62766 314.454 2.65262 316.006 1.97971C317.571 1.30679 319.295 0.970337 321.176 0.970337C323.071 0.970337 324.795 1.30679 326.347 1.97971C327.912 2.65262 329.258 3.62766 330.384 4.90482C331.524 6.18198 332.403 7.72693 333.021 9.53967C333.653 11.3387 333.969 13.3849 333.969 15.6783ZM327.727 17.0996V15.6371C327.727 14.0441 327.583 12.6433 327.294 11.4348C327.006 10.2263 326.58 9.21008 326.017 8.38611C325.454 7.56213 324.767 6.94415 323.957 6.53217C323.147 6.10645 322.22 5.89359 321.176 5.89359C320.133 5.89359 319.206 6.10645 318.395 6.53217C317.599 6.94415 316.919 7.56213 316.356 8.38611C315.807 9.21008 315.388 10.2263 315.099 11.4348C314.811 12.6433 314.667 14.0441 314.667 15.6371V17.0996C314.667 18.6789 314.811 20.0797 315.099 21.3019C315.388 22.5104 315.814 23.5335 316.377 24.3712C316.94 25.1952 317.626 25.82 318.437 26.2458C319.247 26.6715 320.174 26.8843 321.217 26.8843C322.261 26.8843 323.188 26.6715 323.998 26.2458C324.809 25.82 325.488 25.1952 326.038 24.3712C326.587 23.5335 327.006 22.5104 327.294 21.3019C327.583 20.0797 327.727 18.6789 327.727 17.0996Z" fill="url(#paint0_linear_301_3051)"/>
<defs>
<linearGradient id="paint0_linear_301_3051" x1="167.031" y1="-9.625" x2="167.031" y2="43.375" gradientUnits="userSpaceOnUse">
<stop stop-color="#FFDA00"/>
<stop offset="1" stop-color="#D9D9D9" stop-opacity="0.8"/>
</linearGradient>
</defs>
</svg>
